<svg width="41" height="41" viewBox="0 0 41 41" fill="none" xmlns="http://www.w3.org/2000/svg">
<path d="M9.07143 11.5345C7.94125 11.5345 6.83645 11.2109 5.89674 10.6047C4.95703 9.99842 4.22462 9.13674 3.79212 8.1286C3.35962 7.12046 3.24645 6.01112 3.46694 4.94088C3.68743 3.87064 4.23166 2.88757 5.03082 2.11597C5.82998 1.34437 6.84816 0.818899 7.95663 0.606015C9.06509 0.393131 10.214 0.502391 11.2582 0.919977C12.3023 1.33756 13.1948 2.04472 13.8227 2.95203C14.4506 3.85933 14.7857 4.92604 14.7857 6.01724C14.7857 7.48051 14.1837 8.88384 13.112 9.91852C12.0404 10.9532 10.587 11.5345 9.07143 11.5345ZM9.07143 3.25862C8.50634 3.25862 7.95394 3.42041 7.48409 3.72353C7.01423 4.02666 6.64802 4.45749 6.43177 4.96157C6.21552 5.46564 6.15894 6.0203 6.26919 6.55542C6.37943 7.09054 6.65155 7.58208 7.05112 7.96788C7.4507 8.35368 7.9598 8.61642 8.51403 8.72286C9.06826 8.8293 9.64273 8.77467 10.1648 8.56588C10.6869 8.35708 11.1331 8.0035 11.4471 7.54985C11.761 7.0962 11.9286 6.56285 11.9286 6.01724C11.9286 5.28561 11.6276 4.58395 11.0917 4.0666C10.5559 3.54926 9.82919 3.25862 9.07143 3.25862ZM31.9286 11.5345C30.7984 11.5345 29.6936 11.2109 28.7539 10.6047C27.8142 9.99842 27.0818 9.13674 26.6493 8.1286C26.2168 7.12046 26.1036 6.01112 26.3241 4.94088C26.5446 3.87064 27.0888 2.88757 27.888 2.11597C28.6871 1.34437 29.7053 0.818899 30.8138 0.606015C31.9222 0.393131 33.0712 0.502391 34.1153 0.919977C35.1595 1.33756 36.0519 2.04472 36.6798 2.95203C37.3077 3.85933 37.6429 4.92604 37.6429 6.01724C37.6429 7.48051 37.0408 8.88384 35.9692 9.91852C34.8975 10.9532 33.4441 11.5345 31.9286 11.5345ZM31.9286 3.25862C31.3635 3.25862 30.8111 3.42041 30.3412 3.72353C29.8714 4.02666 29.5052 4.45749 29.2889 4.96157C29.0727 5.46564 29.0161 6.0203 29.1263 6.55542C29.2366 7.09054 29.5087 7.58208 29.9083 7.96788C30.3078 8.35368 30.8169 8.61642 31.3712 8.72286C31.9254 8.8293 32.4999 8.77467 33.022 8.56588C33.544 8.35708 33.9903 8.0035 34.3042 7.54985C34.6181 7.0962 34.7857 6.56285 34.7857 6.01724C34.7857 5.28561 34.4847 4.58395 33.9489 4.0666C33.4131 3.54926 32.6863 3.25862 31.9286 3.25862ZM34.7857 40.5H29.0714C28.3137 40.5 27.5869 40.2094 27.0511 39.692C26.5153 39.1747 26.2143 38.473 26.2143 37.7414V28.0862H29.0714V37.7414H34.7857V25.3276H37.6429V17.0517C37.6429 16.6859 37.4923 16.3351 37.2244 16.0764C36.9565 15.8177 36.5932 15.6724 36.2143 15.6724H27.0429L20.5 26.7069L13.9571 15.6724H4.78571C4.40683 15.6724 4.04347 15.8177 3.77556 16.0764C3.50765 16.3351 3.35714 16.6859 3.35714 17.0517V25.3276H6.21429V37.7414H11.9286V28.0862H14.7857V37.7414C14.7857 38.473 14.4847 39.1747 13.9489 39.692C13.4131 40.2094 12.6863 40.5 11.9286 40.5H6.21429C5.45652 40.5 4.7298 40.2094 4.19398 39.692C3.65816 39.1747 3.35714 38.473 3.35714 37.7414V28.0862C2.59938 28.0862 1.87266 27.7956 1.33684 27.2782C0.801019 26.7609 0.5 26.0592 0.5 25.3276V17.0517C0.5 15.9543 0.951529 14.9018 1.75526 14.1258C2.55898 13.3498 3.64907 12.9138 4.78571 12.9138H15.6143L20.5 21.1897L25.3857 12.9138H36.2143C37.3509 12.9138 38.441 13.3498 39.2447 14.1258C40.0485 14.9018 40.5 15.9543 40.5 17.0517V25.3276C40.5 26.0592 40.199 26.7609 39.6632 27.2782C39.1273 27.7956 38.4006 28.0862 37.6429 28.0862V37.7414C37.6429 38.473 37.3418 39.1747 36.806 39.692C36.2702 40.2094 35.5435 40.5 34.7857 40.5Z" fill="#31502C" stroke="#31502C"/>
</svg>
