<svg width="33" height="33" viewBox="0 0 33 33" fill="none" xmlns="http://www.w3.org/2000/svg">
<path d="M14.85 0V1.65C11.9955 1.98 9.3885 3.135 7.26 4.851L6.006 3.597L3.663 5.94L4.95 7.1775C3.14181 9.36857 1.99692 12.0304 1.65 14.85H0V18.15H1.65C1.9965 20.922 3.135 23.529 4.95 25.674L3.663 26.928L6.006 29.271L7.2435 28.05C9.42815 29.8272 12.0597 30.9688 14.85 31.35V33H18.15V31.35C20.9352 30.9684 23.5613 29.8266 25.74 28.05L26.994 29.271L29.337 26.928L28.05 25.6905C29.865 23.5455 31.0035 20.922 31.35 18.15H33V14.85H31.35C31.0036 12.0352 29.8585 9.37854 28.05 7.194L29.337 5.94L26.994 3.597L25.7565 4.851C23.5744 3.08675 20.937 1.97689 18.15 1.65V0H14.85ZM14.85 4.95V9.9L13.2 10.725L9.5865 7.1775C11.088 6.0555 12.8865 5.2305 14.85 4.95ZM18.15 4.95C20.064 5.247 21.879 6.006 23.43 7.1775L19.8 10.725L18.15 9.9V4.95ZM7.26 9.504L10.725 13.2L9.9 14.85H4.95C5.214 12.936 6.105 11.055 7.2435 9.4875L7.26 9.504ZM25.74 9.504C26.9445 11.0715 27.7365 12.903 28.05 14.85H23.1L22.275 13.2L25.7565 9.504H25.74ZM16.5 13.2C18.348 13.2 19.8 14.652 19.8 16.5C19.8 18.348 18.348 19.8 16.5 19.8C14.652 19.8 13.2 18.348 13.2 16.5C13.2 14.652 14.652 13.2 16.5 13.2ZM4.95 18.15H9.9L10.8405 19.8L7.2435 23.3475C6.0555 21.846 5.2635 20.064 4.95 18.15ZM23.1 18.15H28.05C27.7328 20.0522 26.9443 21.8447 25.7565 23.364L22.275 19.8L23.1 18.15ZM13.2 22.275L14.85 23.1V28.05C12.9192 27.7212 11.1029 26.9096 9.57 25.6905L13.2 22.275ZM19.8 22.275L23.4135 25.6905C21.912 26.8125 20.1135 27.7695 18.15 28.05V23.1L19.8 22.275Z" fill="#F3CD00"/>
</svg>
