<svg width="33" height="33" viewBox="0 0 33 33" fill="none" xmlns="http://www.w3.org/2000/svg">
<path d="M31.696 17.5843C30.7747 21.8885 27.6096 25.4242 23.4362 26.8121C22.1648 27.2368 20.8334 27.4537 19.493 27.4545C16.8753 27.4579 14.323 26.6359 12.1988 25.1052C10.0746 23.5746 8.4866 21.4131 7.66034 18.9279C7.13861 17.3766 6.93003 15.7371 7.04672 14.1045C7.1634 12.4719 7.60303 10.8788 8.34008 9.41756C9.07008 7.95114 10.0834 6.64408 11.3216 5.57197C12.5597 4.49986 13.9979 3.68398 15.5532 3.17152C18.5197 2.1846 21.7483 2.34693 24.601 3.62644L25.218 2.46241C21.0848 -0.0921297 15.9366 -0.703528 11.3078 0.836853C7.12183 2.22934 3.72909 5.16748 1.75455 9.10856C-0.219982 13.0496 -0.539392 17.5242 0.854398 21.7063C1.94927 24.9974 4.05261 27.8599 6.86578 29.8872C9.67895 31.9145 13.059 33.0036 16.526 33C18.2959 33 20.052 32.7141 21.7467 32.1509C24.83 31.1312 27.5433 29.2225 29.5455 26.6646C31.5477 24.1067 32.7496 21.0137 33 17.7744L31.696 17.5843ZM23.5622 9.62885L20.2533 3.43299L18.5704 10.3505L11.6879 11.704L17.9884 15.2833L16.9048 22.4114L22.2549 17.5427L28.8846 20.7251L25.4985 14.1047L30.8598 8.92699L23.5622 9.62885Z" fill="#F3CD00"/>
</svg>
