<svg width="33" height="33" viewBox="0 0 33 33" fill="none" xmlns="http://www.w3.org/2000/svg">
<path d="M24.7503 2.21082C27.239 3.64773 29.3092 5.70969 30.7561 8.19257C32.2029 10.6754 32.9762 13.4931 32.9995 16.3667C33.0227 19.2403 32.295 22.0701 30.8884 24.5761C29.4818 27.082 27.4452 29.1771 24.9801 30.654C22.5149 32.131 19.7068 32.9385 16.8337 32.9966C13.9605 33.0548 11.122 32.3615 8.59917 30.9856C6.0763 29.6096 3.95654 27.5986 2.44973 25.1516C0.942924 22.7047 0.101327 19.9066 0.00825029 17.0344L0 16.4998L0.00825029 15.9652C0.100657 13.1157 0.929865 10.3387 2.41503 7.90496C3.9002 5.47126 5.99065 3.46392 8.48258 2.07863C10.9745 0.693339 13.7829 -0.0226228 16.6339 0.000544905C19.4849 0.0237126 22.2812 0.785219 24.7503 2.21082ZM9.90012 5.06862C7.38378 6.52158 5.41718 8.76422 4.30529 11.4487C3.1934 14.1332 2.99836 17.1096 3.75042 19.9163C4.50248 22.7229 6.15961 25.203 8.46482 26.9719C10.77 28.7408 13.5945 29.6997 16.5002 29.6998L16.8302 29.6916C18.5214 29.6069 20.1154 28.8755 21.2825 27.6486C22.4495 26.4217 23.1004 24.7931 23.1004 23.0998C23.1004 21.4065 22.4495 19.778 21.2825 18.551C20.1154 17.3241 18.5214 16.5927 16.8302 16.5081L16.5002 16.4998C14.7783 16.4998 13.1246 15.827 11.8919 14.6248C10.6592 13.4225 9.94514 11.7862 9.90208 10.0649C9.85902 8.34355 10.4904 6.67355 11.6614 5.4112C12.8325 4.14886 14.4505 3.39414 16.1702 3.30807L16.5002 3.29982C14.1831 3.29992 11.9068 3.90996 9.90012 5.06862ZM16.5002 7.42482C15.8438 7.42482 15.2142 7.68558 14.7501 8.14973C14.2859 8.61388 14.0252 9.24341 14.0252 9.89982C14.0252 10.5562 14.2859 11.1858 14.7501 11.6499C15.2142 12.1141 15.8438 12.3748 16.5002 12.3748C17.1566 12.3748 17.7862 12.1141 18.2503 11.6499C18.7145 11.1858 18.9752 10.5562 18.9752 9.89982C18.9752 9.24341 18.7145 8.61388 18.2503 8.14973C17.7862 7.68558 17.1566 7.42482 16.5002 7.42482Z" fill="#F3CD00"/>
<path d="M16.5002 20.6248C17.1566 20.6248 17.7861 20.8855 18.2503 21.3497C18.7144 21.8138 18.9752 22.4434 18.9752 23.0998C18.9752 23.7562 18.7144 24.3857 18.2503 24.8499C17.7861 25.314 17.1566 25.5748 16.5002 25.5748C15.8438 25.5748 15.2142 25.314 14.7501 24.8499C14.2859 24.3857 14.0251 23.7562 14.0251 23.0998C14.0251 22.4434 14.2859 21.8138 14.7501 21.3497C15.2142 20.8855 15.8438 20.6248 16.5002 20.6248Z" fill="#F3CD00"/>
</svg>
